<svg xmlns="http://www.w3.org/2000/svg" viewBox="0 0 80 80" width="80" height="80" fill="none">
<g fill="none" stroke="#1A1715" stroke-width="2.4" stroke-linecap="round" stroke-linejoin="round">
<line x1="18" y1="14" x2="18" y2="66"></line>
<circle cx="18" cy="12" r="2.2" fill="#1A1715"></circle>
<path d="M 18 21 C 35 14 53 28 70 21 L 70 51 C 53 58 35 44 18 51 Z" fill="#22356B" stroke="none"></path><path d="M 18 21 C 25.14 18.06 32.46 18.82 39.8 20.18 L 39.8 34.68 C 32.46 33.32 25.14 32.56 18 35.5 Z" fill="#22356B" stroke="none"></path><path d="M 27.22 21 L 30.42 21 L 30.42 35.5 L 27.22 35.5 Z" fill="#F2E4C4" stroke="none"></path><line x1="18" y1="21" x2="39.8" y2="35.5" stroke="#F2E4C4" stroke-width="2"></line><line x1="39.8" y1="21" x2="18" y2="35.5" stroke="#F2E4C4" stroke-width="2"></line><path d="M 33 42.4 L 33.78 44.38 L 35.81 43.76 L 34.75 45.6 L 36.51 46.8 L 34.41 47.12 L 34.56 49.24 L 33 47.8 L 31.44 49.24 L 31.59 47.12 L 29.49 46.8 L 31.25 45.6 L 30.19 43.76 L 32.22 44.38 Z" fill="#F2E4C4" stroke="none"></path><path d="M 57 26.6 L 57.63 28.13 L 59.28 28.26 L 58.03 29.33 L 58.41 30.94 L 57 30.08 L 55.59 30.94 L 55.97 29.33 L 54.72 28.26 L 56.37 28.13 Z" fill="#F2E4C4" stroke="none"></path><path d="M 63 35.6 L 63.63 37.13 L 65.28 37.26 L 64.03 38.33 L 64.41 39.94 L 63 39.08 L 61.59 39.94 L 61.97 38.33 L 60.72 37.26 L 62.37 37.13 Z" fill="#F2E4C4" stroke="none"></path><path d="M 54 40 L 54.53 41.27 L 55.9 41.38 L 54.86 42.28 L 55.18 43.62 L 54 42.9 L 52.82 43.62 L 53.14 42.28 L 52.1 41.38 L 53.47 41.27 Z" fill="#F2E4C4" stroke="none"></path><path d="M 60 45 L 60.53 46.27 L 61.9 46.38 L 60.86 47.28 L 61.18 48.62 L 60 47.9 L 58.82 48.62 L 59.14 47.28 L 58.1 46.38 L 59.47 46.27 Z" fill="#F2E4C4" stroke="none"></path>
<path d="M 18 21 C 35 14 53 28 70 21 L 70 51 C 53 58 35 44 18 51 Z" fill="none"></path>
</g>
</svg>