<svg xmlns="http://www.w3.org/2000/svg" viewBox="0 0 80 80" width="80" height="80" fill="none">
<g fill="none" stroke="#1A1715" stroke-width="2.4" stroke-linecap="round" stroke-linejoin="round">
        <path d="M8 22 Q20 18 32 22 L32 50 Q20 46 8 50 Z" fill="#F2E4C4"></path>
        <path d="M32 22 Q44 18 56 22 L56 50 Q44 46 32 50 Z" fill="#F2E4C4"></path>
        <line x1="32" y1="22" x2="32" y2="50"></line>
        <path d="M44 22 L48 22 L48 36 L46 32 L44 36 Z" fill="#D84A2A"></path>
        <path d="M44 56 L66 56 L64 70 Q64 72 62 72 L48 72 Q46 72 46 70 Z" fill="#F2E4C4"></path>
        <path d="M66 60 Q72 60 72 64 Q72 68 66 68"></path>
      </g>
</svg>