<svg xmlns="http://www.w3.org/2000/svg" viewBox="0 0 80 80" width="80" height="80" fill="none">
<g fill="none" stroke="#1A1715" stroke-width="2.4" stroke-linecap="round" stroke-linejoin="round">
        <g transform="rotate(-15 26 44)">
          <path d="M14 32 Q14 20 28 20 Q40 20 40 30 L40 46 Q40 54 32 54 L20 54 Q14 54 14 46 Z" fill="#D84A2A"></path>
          <path d="M14 32 Q8 34 8 40 Q8 46 14 46"></path>
          <rect x="18" y="50" width="20" height="6" fill="#F2E4C4"></rect>
        </g>
        <g transform="rotate(15 54 44)">
          <path d="M40 32 Q40 20 54 20 Q66 20 66 30 L66 46 Q66 54 60 54 L46 54 Q40 54 40 46 Z" fill="#F4B944"></path>
          <path d="M66 32 Q72 34 72 40 Q72 46 66 46"></path>
          <rect x="42" y="50" width="20" height="6" fill="#F2E4C4"></rect>
        </g>
      </g>
</svg>