<svg xmlns="http://www.w3.org/2000/svg" viewBox="0 0 80 80" width="80" height="80" fill="none">
<g fill="none" stroke="#1A1715" stroke-width="2.4" stroke-linecap="round" stroke-linejoin="round">
<line x1="18" y1="14" x2="18" y2="66"></line>
<circle cx="18" cy="12" r="2.2" fill="#1A1715"></circle>
<path d="M 18 21 C 35 14 53 28 70 21 L 70 51 C 53 58 35 44 18 51 Z" fill="#22356B" stroke="none"></path><path d="M 18 40 C 35 33 53 47 70 40 L 70 43 C 53 50 35 36 18 43 Z" fill="#F2E4C4" stroke="none"></path><path d="M 18 43 C 35 36 53 50 70 43 L 70 46 C 53 53 35 39 18 46 Z" fill="#D84A2A" stroke="none"></path><path d="M 18 46 C 35 39 53 53 70 46 L 70 49 C 53 56 35 42 18 49 Z" fill="#F2E4C4" stroke="none"></path><path d="M 45 36.5 L 45.4 37.45 L 46.43 37.54 L 45.64 38.21 L 45.88 39.21 L 45 38.67 L 44.12 39.21 L 44.36 38.21 L 43.57 37.54 L 44.6 37.45 Z" fill="#F2E4C4" stroke="none"></path><path d="M 42.36 42.86 L 42.76 43.82 L 43.79 43.9 L 43.01 44.57 L 43.25 45.58 L 42.36 45.04 L 41.48 45.58 L 41.72 44.57 L 40.94 43.9 L 41.97 43.82 Z" fill="#F2E4C4" stroke="none"></path><path d="M 36 45.5 L 36.4 46.45 L 37.43 46.54 L 36.64 47.21 L 36.88 48.21 L 36 47.68 L 35.12 48.21 L 35.36 47.21 L 34.57 46.54 L 35.6 46.45 Z" fill="#F2E4C4" stroke="none"></path><path d="M 29.64 42.86 L 30.03 43.82 L 31.06 43.9 L 30.28 44.57 L 30.52 45.58 L 29.64 45.04 L 28.75 45.58 L 28.99 44.57 L 28.21 43.9 L 29.24 43.82 Z" fill="#F2E4C4" stroke="none"></path><path d="M 27 36.5 L 27.4 37.45 L 28.43 37.54 L 27.64 38.21 L 27.88 39.21 L 27 38.67 L 26.12 39.21 L 26.36 38.21 L 25.57 37.54 L 26.6 37.45 Z" fill="#F2E4C4" stroke="none"></path><path d="M 29.64 30.14 L 30.03 31.09 L 31.06 31.17 L 30.28 31.84 L 30.52 32.85 L 29.64 32.31 L 28.75 32.85 L 28.99 31.84 L 28.21 31.17 L 29.24 31.09 Z" fill="#F2E4C4" stroke="none"></path><path d="M 36 27.5 L 36.4 28.45 L 37.43 28.54 L 36.64 29.21 L 36.88 30.21 L 36 29.68 L 35.12 30.21 L 35.36 29.21 L 34.57 28.54 L 35.6 28.45 Z" fill="#F2E4C4" stroke="none"></path><path d="M 42.36 30.14 L 42.76 31.09 L 43.79 31.17 L 43.01 31.84 L 43.25 32.85 L 42.36 32.31 L 41.48 32.85 L 41.72 31.84 L 40.94 31.17 L 41.97 31.09 Z" fill="#F2E4C4" stroke="none"></path>
<path d="M 18 21 C 35 14 53 28 70 21 L 70 51 C 53 58 35 44 18 51 Z" fill="none"></path>
</g>
</svg>