<svg xmlns="http://www.w3.org/2000/svg" viewBox="0 0 80 80" width="80" height="80" fill="none">
<g fill="none" stroke="#1A1715" stroke-width="2.4" stroke-linecap="round" stroke-linejoin="round">
<line x1="18" y1="14" x2="18" y2="66"></line>
<circle cx="18" cy="12" r="2.2" fill="#1A1715"></circle>
<path d="M 18 21 C 35 14 53 28 70 21 L 70 36 C 53 43 35 29 18 36 Z" fill="#F2E4C4" stroke="none"></path><path d="M 18 36 C 35 29 53 43 70 36 L 70 51 C 53 58 35 44 18 51 Z" fill="#D84A2A" stroke="none"></path><path d="M 18 36 C 35 29 53 43 70 36" fill="none"></path><path d="M 18 21 L 39.8 35.18 L 18 51 Z" fill="#22356B" stroke="none"></path>
<path d="M 18 21 C 35 14 53 28 70 21 L 70 51 C 53 58 35 44 18 51 Z" fill="none"></path>
</g>
</svg>