<svg xmlns="http://www.w3.org/2000/svg" viewBox="0 0 80 80" width="80" height="80" fill="none">
<g fill="none" stroke="#1A1715" stroke-width="2.4" stroke-linecap="round" stroke-linejoin="round">
        <circle cx="40" cy="40" r="28" fill="#F2E4C4"></circle>
        <path d="M40 12 L40 40 L62 26 Z" fill="#1A1715"></path>
        <path d="M40 40 L62 26 L68 40 Z" fill="#F4B944"></path>
        <path d="M40 40 L68 40 L62 54 Z" fill="#1A1715"></path>
        <path d="M40 40 L62 54 L40 68 Z" fill="#F4B944"></path>
        <path d="M40 40 L40 68 L18 54 Z" fill="#1A1715"></path>
        <path d="M40 40 L18 54 L12 40 Z" fill="#F4B944"></path>
        <path d="M40 40 L12 40 L18 26 Z" fill="#1A1715"></path>
        <path d="M40 40 L18 26 L40 12 Z" fill="#F4B944"></path>
        <circle cx="40" cy="40" r="28"></circle>
        <circle cx="40" cy="40" r="16" fill="#F2E4C4"></circle>
        <circle cx="40" cy="40" r="6" fill="#D84A2A"></circle>
        <line x1="40" y1="40" x2="62" y2="18" stroke-width="2.6"></line>
        <path d="M62 18 L70 12 L66 22 Z" fill="#1A1715"></path>
      </g>
</svg>