<svg xmlns="http://www.w3.org/2000/svg" viewBox="0 0 80 80" width="80" height="80" fill="none">
<g fill="none" stroke="#1A1715" stroke-width="2.4" stroke-linecap="round" stroke-linejoin="round">
        <path d="M14 26 Q12 38 18 44 Q22 40 22 32 Q22 24 18 22 Q14 22 14 26 Z" fill="#F2E4C4"></path>
        <path d="M66 26 Q68 38 62 44 Q58 40 58 32 Q58 24 62 22 Q66 22 66 26 Z" fill="#F2E4C4"></path>
        <path d="M18 40 Q18 24 40 24 Q62 24 62 40 Q62 60 40 62 Q18 60 18 40 Z" fill="#F2E4C4"></path>
        <circle cx="30" cy="38" r="2.2" fill="#1A1715" stroke="none"></circle>
        <circle cx="50" cy="38" r="2.2" fill="#1A1715" stroke="none"></circle>
        <path d="M37 46 L43 46 L40 50 Z" fill="#1A1715"></path>
        <path d="M40 50 Q40 54 36 56"></path>
        <path d="M40 50 Q40 54 44 56"></path>
      </g>
</svg>