<svg xmlns="http://www.w3.org/2000/svg" viewBox="0 0 80 80" width="80" height="80" fill="none">
<g fill="none" stroke="#1A1715" stroke-width="2.4" stroke-linecap="round" stroke-linejoin="round">
<line x1="18" y1="14" x2="18" y2="66"></line>
<circle cx="18" cy="12" r="2.2" fill="#1A1715"></circle>
<path d="M 18 21 C 35 14 53 28 70 21 L 70 51 C 53 58 35 44 18 51 Z" fill="#7FB4DD" stroke="none"></path><path d="M 18 50 L 24 50 L 70 24 L 70 30 L 30 52 Z" fill="#F4B944" stroke="none"></path><path d="M 21 50 L 70 25.5 L 70 28.5 L 27 52 Z" fill="#D84A2A" stroke="none"></path><path d="M 28 24.8 L 28.85 26.84 L 31.04 27.01 L 29.37 28.44 L 29.88 30.59 L 28 29.44 L 26.12 30.59 L 26.63 28.44 L 24.96 27.01 L 27.15 26.84 Z" fill="#F4B944" stroke="none"></path>
<path d="M 18 21 C 35 14 53 28 70 21 L 70 51 C 53 58 35 44 18 51 Z" fill="none"></path>
</g>
</svg>