<svg xmlns="http://www.w3.org/2000/svg" viewBox="0 0 80 80" width="80" height="80" fill="none">
<g fill="none" stroke="#1A1715" stroke-width="2.4" stroke-linecap="round" stroke-linejoin="round">
        <g transform="rotate(-10 26 32)">
          <rect x="12" y="14" width="26" height="36" rx="3" fill="#F2E4C4"></rect>
          <path d="M25 36 Q19 28 22 24 Q26 22 25 26 Q24 22 28 24 Q31 28 25 36 Z" fill="#D84A2A"></path>
        </g>
        <g transform="rotate(8 52 36)">
          <rect x="40" y="18" width="26" height="36" rx="3" fill="#F2E4C4"></rect>
          <text x="44" y="30" font-family="Fredoka,sans-serif" font-size="10" fill="#1A1715" stroke="none" font-weight="700">A</text>
          <path d="M53 32 Q47 40 47 44 Q47 47 50 47 Q52 47 53 45 Q54 47 56 47 Q59 47 59 44 Q59 40 53 32 Z" fill="#1A1715"></path>
        </g>
        <g transform="rotate(-6 24 60)">
          <rect x="12" y="50" width="22" height="22" rx="3" fill="#F4B944"></rect>
          <circle cx="18" cy="56" r="1.8" fill="#1A1715" stroke="none"></circle>
          <circle cx="28" cy="56" r="1.8" fill="#1A1715" stroke="none"></circle>
          <circle cx="23" cy="61" r="1.8" fill="#1A1715" stroke="none"></circle>
          <circle cx="18" cy="66" r="1.8" fill="#1A1715" stroke="none"></circle>
          <circle cx="28" cy="66" r="1.8" fill="#1A1715" stroke="none"></circle>
        </g>
      </g>
</svg>