<svg xmlns="http://www.w3.org/2000/svg" viewBox="0 0 80 80" width="80" height="80" fill="none">
<g fill="none" stroke="#1A1715" stroke-width="2.4" stroke-linecap="round" stroke-linejoin="round">
<line x1="18" y1="14" x2="18" y2="66"></line>
<circle cx="18" cy="12" r="2.2" fill="#1A1715"></circle>
<path d="M 18 21 C 35 14 53 28 70 21 L 70 51 C 53 58 35 44 18 51 Z" fill="#2E8B57" stroke="none"></path><line x1="28" y1="42" x2="58" y2="42" stroke="#F2E4C4" stroke-width="2.6"></line><path d="M 56 42 L 60 40 L 60 44 Z" fill="#F2E4C4" stroke="none"></path><path d="M 30 31 Q40 27 52 31 Q44 33 40 31 Q34 33 30 33 Z" fill="#F2E4C4" stroke="none"></path>
<path d="M 18 21 C 35 14 53 28 70 21 L 70 51 C 53 58 35 44 18 51 Z" fill="none"></path>
</g>
</svg>