<svg xmlns="http://www.w3.org/2000/svg" viewBox="0 0 80 80" width="80" height="80" fill="none">
<g fill="none" stroke="#1A1715" stroke-width="2.4" stroke-linecap="round" stroke-linejoin="round">
<line x1="18" y1="14" x2="18" y2="66"></line>
<circle cx="18" cy="12" r="2.2" fill="#1A1715"></circle>
<path d="M 18 21 C 35 14 53 28 70 21 L 70 51 C 53 58 35 44 18 51 Z" fill="#D84A2A" stroke="none"></path><circle cx="44" cy="36" r="7.5" fill="#F2E4C4" stroke="none"></circle><circle cx="45.5" cy="36" r="4.5" fill="#D84A2A" stroke="none"></circle><circle cx="47.75" cy="36" r="3.69" fill="#F2E4C4" stroke="none"></circle><path d="M 48 33.8 L 48.58 35.2 L 50.09 35.32 L 48.94 36.31 L 49.29 37.78 L 48 36.99 L 46.71 37.78 L 47.06 36.31 L 45.91 35.32 L 47.42 35.2 Z" fill="#D84A2A" stroke="none"></path>
<path d="M 18 21 C 35 14 53 28 70 21 L 70 51 C 53 58 35 44 18 51 Z" fill="none"></path>
</g>
</svg>