<svg xmlns="http://www.w3.org/2000/svg" viewBox="0 0 80 80" width="80" height="80" fill="none">
<g fill="none" stroke="#1A1715" stroke-width="2.4" stroke-linecap="round" stroke-linejoin="round">
<line x1="18" y1="14" x2="18" y2="66"></line>
<circle cx="18" cy="12" r="2.2" fill="#1A1715"></circle>
<path d="M 18 21 C 35 14 53 28 70 21 L 70 26 C 53 33 35 19 18 26 Z" fill="#D84A2A" stroke="none"></path><path d="M 18 26 C 35 19 53 33 70 26 L 70 31 C 53 38 35 24 18 31 Z" fill="#F2E4C4" stroke="none"></path><path d="M 18 31 C 35 24 53 38 70 31 L 70 36 C 53 43 35 29 18 36 Z" fill="#D84A2A" stroke="none"></path><path d="M 18 36 C 35 29 53 43 70 36 L 70 41 C 53 48 35 34 18 41 Z" fill="#F2E4C4" stroke="none"></path><path d="M 18 41 C 35 34 53 48 70 41 L 70 46 C 53 53 35 39 18 46 Z" fill="#D84A2A" stroke="none"></path><path d="M 18 46 C 35 39 53 53 70 46 L 70 51 C 53 58 35 44 18 51 Z" fill="#F2E4C4" stroke="none"></path><path d="M 18 26 C 35 19 53 33 70 26" fill="none"></path><path d="M 18 31 C 35 24 53 38 70 31" fill="none"></path><path d="M 18 36 C 35 29 53 43 70 36" fill="none"></path><path d="M 18 41 C 35 34 53 48 70 41" fill="none"></path><path d="M 18 46 C 35 39 53 53 70 46" fill="none"></path><path d="M 18 21 C 25.14 18.06 32.46 18.82 39.8 20.18 L 39.8 34.68 C 32.46 33.32 25.14 32.56 18 35.5 Z" fill="#22356B" stroke="none"></path><path d="M 25 25.5 L 25.4 26.45 L 26.43 26.54 L 25.64 27.21 L 25.88 28.21 L 25 27.68 L 24.12 28.21 L 24.36 27.21 L 23.57 26.54 L 24.6 26.45 Z" fill="#F2E4C4" stroke="none"></path><path d="M 31 25.5 L 31.4 26.45 L 32.43 26.54 L 31.64 27.21 L 31.88 28.21 L 31 27.68 L 30.12 28.21 L 30.36 27.21 L 29.57 26.54 L 30.6 26.45 Z" fill="#F2E4C4" stroke="none"></path><path d="M 37 25.5 L 37.4 26.45 L 38.43 26.54 L 37.64 27.21 L 37.88 28.21 L 37 27.68 L 36.12 28.21 L 36.36 27.21 L 35.57 26.54 L 36.6 26.45 Z" fill="#F2E4C4" stroke="none"></path><path d="M 28 30.5 L 28.4 31.45 L 29.43 31.54 L 28.64 32.21 L 28.88 33.21 L 28 32.67 L 27.12 33.21 L 27.36 32.21 L 26.57 31.54 L 27.6 31.45 Z" fill="#F2E4C4" stroke="none"></path><path d="M 34 30.5 L 34.4 31.45 L 35.43 31.54 L 34.64 32.21 L 34.88 33.21 L 34 32.67 L 33.12 33.21 L 33.36 32.21 L 32.57 31.54 L 33.6 31.45 Z" fill="#F2E4C4" stroke="none"></path><path d="M 25 30.5 L 25.4 31.45 L 26.43 31.54 L 25.64 32.21 L 25.88 33.21 L 25 32.67 L 24.12 33.21 L 24.36 32.21 L 23.57 31.54 L 24.6 31.45 Z" fill="#F2E4C4" stroke="none"></path>
<path d="M 18 21 C 35 14 53 28 70 21 L 70 51 C 53 58 35 44 18 51 Z" fill="none"></path>
</g>
</svg>