<svg xmlns="http://www.w3.org/2000/svg" viewBox="0 0 80 80" width="80" height="80" fill="none">
<g fill="none" stroke="#1A1715" stroke-width="2.4" stroke-linecap="round" stroke-linejoin="round">
<line x1="18" y1="14" x2="18" y2="66"></line>
<circle cx="18" cy="12" r="2.2" fill="#1A1715"></circle>
<path d="M 18 21 C 35 14 53 28 70 21 L 70 51 C 53 58 35 44 18 51 Z" fill="#F2E4C4" stroke="none"></path><path d="M 18 38 C 35 31 53 45 70 38 L 70 40 C 53 47 35 33 18 40 Z" fill="#2C5CA8" stroke="none"></path><path d="M 18 42 C 35 35 53 49 70 42 L 70 44 C 53 51 35 37 18 44 Z" fill="#2C5CA8" stroke="none"></path><path d="M 18 46 C 35 39 53 53 70 46 L 70 48 C 53 55 35 41 18 48 Z" fill="#2C5CA8" stroke="none"></path><path d="M 18 21 C 24.8 18.2 31.76 18.76 38.75 19.99 L 38.75 35.99 C 31.76 34.76 24.8 34.2 18 37 Z" fill="#F2E4C4" stroke="none"></path><circle cx="30" cy="28" r="2.6" fill="#F4B944" stroke="none"></circle><path d="M 30 23 L 31.05 25.46 L 33.54 24.46 L 32.54 26.95 L 35 28 L 32.54 29.05 L 33.54 31.54 L 31.05 30.54 L 30 33 L 28.95 30.54 L 26.46 31.54 L 27.46 29.05 L 25 28 L 27.46 26.95 L 26.46 24.46 L 28.95 25.46 Z" fill="#F4B944" stroke="none"></path>
<path d="M 18 21 C 35 14 53 28 70 21 L 70 51 C 53 58 35 44 18 51 Z" fill="none"></path>
</g>
</svg>