<svg xmlns="http://www.w3.org/2000/svg" viewBox="0 0 80 80" width="80" height="80" fill="none">
<g fill="none" stroke="#1A1715" stroke-width="2.4" stroke-linecap="round" stroke-linejoin="round">
<circle cx="33" cy="39" r="21" fill="#F2E4C4"></circle><polygon points="33,29.31 41.88,35.37 38.65,45.06 27.35,45.06 24.12,35.37" fill="#1A1715"></polygon><line x1="33" y1="29.31" x2="33" y2="19.62"></line><line x1="41.88" y1="35.37" x2="50.77" y2="32.54"></line><line x1="38.65" y1="45.06" x2="44.31" y2="53.54"></line><line x1="27.35" y1="45.06" x2="21.69" y2="53.54"></line><line x1="24.12" y1="35.37" x2="15.23" y2="32.54"></line><g transform="translate(30.4 25.2) scale(0.6)" stroke-width="4"><path d="M20 16 L52 16 L50 36 Q48 44 36 44 Q24 44 22 36 Z" fill="#F2E4C4"></path><path d="M20 20 Q10 20 10 28 Q10 34 20 35"></path><path d="M52 20 Q62 20 62 28 Q62 34 52 35"></path><path d="M36 22 L38.4 29 L46 29 L39.8 33.5 L42.2 40.5 L36 36 L29.8 40.5 L32.2 33.5 L26 29 L33.6 29 Z" fill="#F4B944"></path><path d="M36 44 L36 50"></path><path d="M28 50 L44 50 L42 56 L30 56 Z" fill="#F2E4C4"></path></g>
</g>
</svg>